<?xml version="1.0"?>
<svg xmlns="http://www.w3.org/2000/svg" id="icons" enable-background="new 0 0 64 64" height="512px" viewBox="0 0 64 64" width="512px"><g><g><g><path d="m56.999 16.5c-.553 0-1-.448-1-1s.447-1 1-1c2.757 0 5-2.243 5-5s-2.243-5-5-5c-.553 0-1-.448-1-1s.447-1 1-1c3.859 0 7 3.14 7 7s-3.141 7-7 7z" data-original="#000000" class="active-path" data-old_color="#000000" fill="#FFCE00"/></g><g><path d="m56.999 58.498c-.553 0-1-.447-1-1s.447-1 1-1c2.757 0 5-2.243 5-5 0-.553.447-1 1-1s1 .447 1 1c0 3.859-3.141 7-7 7z" data-original="#000000" class="active-path" data-old_color="#000000" fill="#FFCE00"/></g><g><path d="m56.499 13.501c-3.032 0-5.5-2.467-5.5-5.5s2.468-5.5 5.5-5.5c.553 0 1 .448 1 1s-.447 1-1 1c-1.93 0-3.5 1.57-3.5 3.5s1.57 3.5 3.5 3.5c.553 0 1 .448 1 1s-.447 1-1 1z" data-original="#000000" class="active-path" data-old_color="#000000" fill="#FFCE00"/></g><g><path d="m56.499 55.498c-3.032 0-5.5-2.468-5.5-5.5 0-.553.447-1 1-1s1 .447 1 1c0 1.93 1.57 3.5 3.5 3.5.553 0 1 .447 1 1s-.447 1-1 1z" data-original="#000000" class="active-path" data-old_color="#000000" fill="#FFCE00"/></g><g><path d="m56.499 10.505c-1.38 0-2.502-1.123-2.502-2.502s1.122-2.502 2.502-2.502c.553 0 1 .448 1 1s-.447 1-1 1c-.276 0-.502.225-.502.502s.226.502.502.502c.553 0 1 .448 1 1s-.447 1-1 1z" data-original="#000000" class="active-path" data-old_color="#000000" fill="#FFCE00"/></g><g><path d="m56.999 13.5c-.553 0-1-.448-1-1s.447-1 1-1c1.103 0 2-.897 2-2s-.897-2-2-2c-.553 0-1-.448-1-1s.447-1 1-1c2.206 0 4 1.794 4 4s-1.794 4-4 4z" data-original="#000000" class="active-path" data-old_color="#000000" fill="#FFCE00"/></g><g><path d="m56.999 58.498c-.553 0-1-.447-1-1v-41.998c0-.552.447-1 1-1s1 .448 1 1v41.998c0 .553-.447 1-1 1z" data-original="#000000" class="active-path" data-old_color="#000000" fill="#FFCE00"/></g><g><path d="m62.999 52.498c-.553 0-1-.447-1-1v-41.998c0-.552.447-1 1-1s1 .448 1 1v41.998c0 .553-.447 1-1 1z" data-original="#000000" class="active-path" data-old_color="#000000" fill="#FFCE00"/></g><g><path d="m56.997 13.501c-.553 0-1-.448-1-1v-2.996c0-.552.447-1 1-1s1 .448 1 1v2.996c0 .552-.447 1-1 1z" data-original="#000000" class="active-path" data-old_color="#000000" fill="#FFCE00"/></g><g><path d="m56.997 10.505h-.498c-.553 0-1-.448-1-1s.447-1 1-1h.498c.553 0 1 .448 1 1s-.447 1-1 1z" data-original="#000000" class="active-path" data-old_color="#000000" fill="#FFCE00"/></g><g><path d="m56.999 13.5h-.5c-.553 0-1-.448-1-1s.447-1 1-1h.5c.553 0 1 .448 1 1s-.447 1-1 1z" data-original="#000000" class="active-path" data-old_color="#000000" fill="#FFCE00"/></g><g><path d="m56.999 7.501h-.5c-.553 0-1-.448-1-1s.447-1 1-1h.5c.553 0 1 .448 1 1s-.447 1-1 1z" data-original="#000000" class="active-path" data-old_color="#000000" fill="#FFCE00"/></g><g><path d="m51.999 50.998c-.553 0-1-.447-1-1v-41.997c0-.552.447-1 1-1s1 .448 1 1v41.997c0 .553-.447 1-1 1z" data-original="#000000" class="active-path" data-old_color="#000000" fill="#FFCE00"/></g><g><path d="m43.999 20.495c-.553 0-1-.448-1-1s.447-1 1-1c1.654 0 3-1.346 3-3s-1.346-3-3-3c-.553 0-1-.448-1-1s.447-1 1-1c2.757 0 5 2.243 5 5s-2.243 5-5 5z" data-original="#000000" class="active-path" data-old_color="#000000" fill="#FFCE00"/></g><g><path d="m43.999 58.5c-.553 0-1-.447-1-1s.447-1 1-1c1.654 0 3-1.346 3-3 0-.553.447-1 1-1s1 .447 1 1c0 2.757-2.243 5-5 5z" data-original="#000000" class="active-path" data-old_color="#000000" fill="#FFCE00"/></g><g><path d="m43.999 58.5c-.553 0-1-.447-1-1v-38.005c0-.552.447-1 1-1s1 .448 1 1v38.005c0 .553-.447 1-1 1z" data-original="#000000" class="active-path" data-old_color="#000000" fill="#FFCE00"/></g><g><path d="m47.999 54.5c-.553 0-1-.447-1-1v-38.005c0-.552.447-1 1-1s1 .448 1 1v38.005c0 .553-.447 1-1 1z" data-original="#000000" class="active-path" data-old_color="#000000" fill="#FFCE00"/></g><g><path d="m43.999 12.49h-39.018c-.553 0-1-.448-1-1s.447-1 1-1h39.018c.553 0 1 .448 1 1s-.447 1-1 1z" data-original="#000000" class="active-path" data-old_color="#000000" fill="#FFCE00"/></g><g><path d="m43.999 50.496h-10.996c-.553 0-1-.447-1-1s.447-1 1-1h10.996c.553 0 1 .447 1 1s-.447 1-1 1z" data-original="#000000" class="active-path" data-old_color="#000000" fill="#FFCE00"/></g><g><path d="m5.001 50.51c-2.757 0-5-2.243-5-5 0-.553.447-1 1-1s1 .447 1 1c0 1.654 1.346 3 3 3 .553 0 1 .447 1 1s-.447 1-1 1z" data-original="#000000" class="active-path" data-old_color="#000000" fill="#FFCE00"/></g><g><path d="m1.001 8.502c-.553 0-1-.448-1-1 0-2.757 2.243-5 5-5 .553 0 1 .448 1 1s-.447 1-1 1c-1.654 0-3 1.346-3 3 0 .552-.447 1-1 1z" data-original="#000000" class="active-path" data-old_color="#000000" fill="#FFCE00"/></g><g><path d="m5.001 12.506c-.553 0-1-.448-1-1v-8.004c0-.552.447-1 1-1s1 .448 1 1v8.004c0 .552-.447 1-1 1z" data-original="#000000" class="active-path" data-old_color="#000000" fill="#FFCE00"/></g><g><path d="m1.001 46.51c-.553 0-1-.447-1-1v-38.008c0-.552.447-1 1-1s1 .448 1 1v38.008c0 .553-.447 1-1 1z" data-original="#000000" class="active-path" data-old_color="#000000" fill="#FFCE00"/></g><g><path d="m5.005 12.506c-2.759 0-5.004-2.245-5.004-5.004 0-.552.447-1 1-1s1 .448 1 1c0 1.656 1.348 3.004 3.004 3.004.553 0 1 .448 1 1s-.447 1-1 1z" data-original="#000000" class="active-path" data-old_color="#000000" fill="#FFCE00"/></g><g><path d="m10.993 50.51h-5.992c-.553 0-1-.447-1-1s.447-1 1-1h5.992c.553 0 1 .447 1 1s-.447 1-1 1z" data-original="#000000" class="active-path" data-old_color="#000000" fill="#FFCE00"/></g><g><path d="m29.476 50.508h-14.961c-.553 0-1-.447-1-1s.447-1 1-1h14.961c.553 0 1 .447 1 1s-.448 1-1 1z" data-original="#000000" class="active-path" data-old_color="#000000" fill="#FFCE00"/></g><g><path d="m56.999 4.5h-.5c-.553 0-1-.448-1-1s.447-1 1-1h.5c.553 0 1 .448 1 1s-.447 1-1 1z" data-original="#000000" class="active-path" data-old_color="#000000" fill="#FFCE00"/></g><g><g><path d="m22 33.493c-3.309 0-6-2.691-6-5.998 0-3.308 2.691-6 6-6s6 2.691 6 6c0 3.307-2.691 5.998-6 5.998zm0-9.997c-2.206 0-4 1.794-4 4 0 2.204 1.794 3.998 4 3.998s4-1.793 4-3.998c0-2.206-1.794-4-4-4z" data-original="#000000" class="active-path" data-old_color="#000000" fill="#FFCE00"/></g><g><path d="m22 30.493c-1.654 0-3-1.345-3-2.998 0-1.654 1.346-3 3-3s3 1.346 3 3c0 1.653-1.346 2.998-3 2.998zm0-3.998c-.552 0-1 .449-1 1 0 .55.448.998 1 .998s1-.448 1-.998c0-.551-.448-1-1-1z" data-original="#000000" class="active-path" data-old_color="#000000" fill="#FFCE00"/></g><g><path d="m23.501 19c-.553 0-1-.448-1-1 0-.276-.225-.501-.501-.501s-.501.224-.501.501c0 .552-.447 1-1 1s-1-.448-1-1c0-1.379 1.122-2.501 2.501-2.501s2.501 1.122 2.501 2.501c0 .552-.447 1-1 1z" data-original="#000000" class="active-path" data-old_color="#000000" fill="#FFCE00"/></g><g><path d="m33.004 58.518c-.385 0-.752-.223-.916-.598l-11.003-25.023c-.223-.505.007-1.095.513-1.318.507-.224 1.096.008 1.317.513l11.003 25.023c.223.506-.007 1.096-.513 1.317-.131.058-.267.086-.401.086z" data-original="#000000" class="active-path" data-old_color="#000000" fill="#FFCE00"/></g><g><path d="m33.003 61.5c-.553 0-1-.447-1-1v-10.99c0-.553.447-1 1-1s1 .447 1 1v10.99c0 .553-.447 1-1 1z" data-original="#000000" class="active-path" data-old_color="#000000" fill="#FFCE00"/></g><g><path d="m10.992 58.518c-.134 0-.271-.027-.401-.085-.506-.222-.735-.812-.513-1.317l11.003-25.023c.222-.505.81-.737 1.317-.513.506.223.735.813.513 1.318l-11.003 25.022c-.164.375-.531.598-.916.598z" data-original="#000000" class="active-path" data-old_color="#000000" fill="#FFCE00"/></g><g><path d="m33.004 50.51c-.385 0-.752-.223-.916-.598l-7.943-18.062c-.223-.505.007-1.095.513-1.318.508-.223 1.097.008 1.317.513l7.943 18.063c.223.505-.007 1.096-.513 1.317-.131.057-.267.085-.401.085z" data-original="#000000" class="active-path" data-old_color="#000000" fill="#FFCE00"/></g><g><path d="m10.992 50.51c-.134 0-.271-.027-.401-.085-.506-.222-.735-.813-.513-1.317l7.945-18.066c.222-.505.811-.736 1.317-.513s.735.813.513 1.318l-7.945 18.066c-.164.374-.531.597-.916.597z" data-original="#000000" class="active-path" data-old_color="#000000" fill="#FFCE00"/></g><g><path d="m10.993 61.5c-.553 0-1-.447-1-1v-10.99c0-.553.447-1 1-1s1 .447 1 1v10.99c0 .553-.447 1-1 1z" data-original="#000000" class="active-path" data-old_color="#000000" fill="#FFCE00"/></g><g><path d="m23.501 23.725c-.553 0-1-.448-1-1v-4.727c0-.552.447-1 1-1s1 .448 1 1v4.727c0 .552-.447 1-1 1z" data-original="#000000" class="active-path" data-old_color="#000000" fill="#FFCE00"/></g><g><path d="m20.499 23.725c-.553 0-1-.448-1-1v-4.727c0-.552.447-1 1-1s1 .448 1 1v4.727c0 .552-.447 1-1 1z" data-original="#000000" class="active-path" data-old_color="#000000" fill="#FFCE00"/></g><g><path d="m27.281 45.502h-10.525c-.553 0-1-.447-1-1s.447-1 1-1h10.525c.553 0 1 .447 1 1s-.447 1-1 1z" data-original="#000000" class="active-path" data-old_color="#000000" fill="#FFCE00"/></g><g><path d="m33.001 45.502h-2.199c-.553 0-1-.447-1-1s.447-1 1-1h2.199c.553 0 1 .447 1 1s-.447 1-1 1z" data-original="#000000" class="active-path" data-old_color="#000000" fill="#FFCE00"/></g><g><path d="m13.194 45.506h-2.195c-.553 0-1-.447-1-1s.447-1 1-1h2.195c.553 0 1 .447 1 1s-.447 1-1 1z" data-original="#000000" class="active-path" data-old_color="#000000" fill="#FFCE00"/></g></g></g></g> </svg>
