<?xml version="1.0" encoding="utf-8"?>
<!-- Generator: Adobe Illustrator 24.1.1, SVG Export Plug-In . SVG Version: 6.00 Build 0)  -->
<svg version="1.1" id="Capa_1" xmlns="http://www.w3.org/2000/svg" xmlns:xlink="http://www.w3.org/1999/xlink" x="0px" y="0px"
	 viewBox="0 0 512 512" style="enable-background:new 0 0 512 512;" xml:space="preserve">
<style type="text/css">
	.st0{fill:#F6B303;}
	.st1{fill:#FFFFFF;}
	.st2{fill:#F7C000;}
</style>
<path id="XMLID_1376_" class="st0" d="M415.1,214.9c20-28,17.5-67.2-7.7-92.4c-16.8-16.8-39.8-23.5-61.5-20.2c0-0.8,0-1.6,0-2.4
	c0-49.7-40.3-89.9-89.9-89.9s-89.9,40.3-89.9,89.9c0,0.8,0,1.6,0,2.4c-21.8-3.3-44.8,3.4-61.5,20.2c-25.2,25.2-27.7,64.3-7.7,92.4
	c-36,13.5-61.6,48.3-61.6,89c0,52.5,42.6,95.1,95.1,95.1c22,0,42.3-7.5,58.4-20c19.3,12.7,42.5,20,67.3,20s48-7.4,67.3-20
	c16.1,12.6,36.4,20,58.4,20c52.5,0,95.1-42.6,95.1-95.1C476.8,263.2,451.1,228.4,415.1,214.9L415.1,214.9z"/>
<path id="XMLID_2069_" class="st1" d="M320,502l-36-36v-50l43.2-32l-19.8-41.5c-11.8,7.2-29.7,18-29.7,18v-61.9H237v65l-37-20.5
	l-16.4,41.8l44.4,24.9V466l-36,36L320,502z"/>
<path id="XMLID_1565_" class="st2" d="M467.6,243.5c-9.9-14.1-22.9-25.3-38.1-33.1c16-31.2,10.4-69.4-15.1-94.9
	c-15.6-15.6-37-24.2-58.9-23.9c-2.8-33-21.8-62.7-51-79c-4.8-2.7-10.9-1-13.6,3.9c-2.7,4.8-1,10.9,3.9,13.6
	c25.4,14.1,41.1,40.9,41.1,69.9c0,0.7,0,1.4,0,2.2c-0.1,3,1.2,5.8,3.4,7.8c2.2,2,5.2,2.8,8.1,2.4c19.4-2.9,39.1,3.6,53,17.4
	c21.4,21.4,24.2,54.9,6.6,79.5c-1.8,2.5-2.3,5.8-1.4,8.7c0.9,3,3.1,5.4,6,6.4c33,12.4,55.2,44.4,55.2,79.7
	c0,46.9-38.2,85.1-85.1,85.1c-17.4,0-34-5.2-48.2-15l-17-35.7c-1.2-2.6-3.5-4.5-6.2-5.3c-2.7-0.8-5.6-0.4-8.1,1l-14.5,8.8v-44.1
	c0-5.5-4.5-10-10-10H237c-5.5,0-10,4.5-10,10v48l-22.1-12.3c-2.5-1.4-5.5-1.6-8.2-0.7c-2.7,1-4.9,3.1-5.9,5.7l-14.1,35.8
	c-13.8,9-29.8,13.7-46.3,13.7c-46.9,0-85.1-38.2-85.1-85.1c0-35.2,22.2-67.3,55.2-79.7c2.9-1.1,5.1-3.5,6-6.4s0.4-6.2-1.4-8.7
	c-17.6-24.6-14.8-58.1,6.6-79.5c13.8-13.8,33.6-20.3,53-17.4c2.9,0.4,5.9-0.4,8.1-2.4s3.5-4.8,3.4-7.8c0-0.7,0-1.4,0-2.2
	c0-29.1,15.8-55.9,41.3-70c4.8-2.7,6.6-8.8,3.9-13.6c-2.7-4.8-8.8-6.6-13.6-3.9c-29.4,16.3-48.5,46.1-51.3,79.1
	c-21.9-0.2-43.3,8.3-58.9,23.9c-25.5,25.5-31,63.7-15.1,94.9c-15.1,7.7-28.1,19-38.1,33.1c-12.5,17.8-19.1,38.7-19.1,60.5
	c0,57.9,47.1,105.1,105.1,105.1c18.3,0,35.9-4.7,51.6-13.5l36.1,20.3v46.1l-33.1,33.1c-2.9,2.9-3.7,7.2-2.2,10.9
	c1.5,3.7,5.2,6.2,9.2,6.2h128c4,0,7.7-2.4,9.2-6.2s0.7-8-2.2-10.9L294,461.9V421l35.2-26.1c15.9,9.2,33.8,14,52.5,14
	c57.9,0,105.1-47.1,105.1-105.1C486.8,282.1,480.1,261.2,467.6,243.5L467.6,243.5z M278,408c-2.5,1.9-4,4.9-4,8v50
	c0,2.7,1.1,5.2,2.9,7.1l18.9,18.9h-79.7l18.9-18.9c1.9-1.9,2.9-4.4,2.9-7.1v-56.1c0-3.6-1.9-6.9-5.1-8.7l-36.8-20.7l9.1-23l27,15
	c3.1,1.7,6.9,1.7,9.9-0.1c3.1-1.8,4.9-5.1,4.9-8.6v-55h20.8v51.9c0,3.6,1.9,6.9,5.1,8.7c3.1,1.8,7,1.7,10.1-0.2l20.2-12.3l11.5,24
	L278,408z"/>
<path id="XMLID_1567_" class="st1" d="M183.7,184.2c6,0,11.8,1.8,16.8,5.1c4.6,3.1,10.8,1.9,13.9-2.7c3.1-4.6,1.9-10.8-2.7-13.9
	c-8.3-5.6-17.9-8.5-28-8.5c-27.6,0-50,22.4-50,50s22.4,50,50,50c11,0,20.9-3.6,28.6-10.5c1.5-1.3,2.9-2.8,4.3-4.4
	c3.5-4.2,3-10.5-1.2-14.1c-4.2-3.6-10.5-3-14.1,1.2c-0.7,0.8-1.4,1.6-2.2,2.3c-4,3.6-9.2,5.4-15.3,5.4c-16.5,0-30-13.5-30-30
	S167.1,184.2,183.7,184.2L183.7,184.2z"/>
<path id="XMLID_1712_" class="st1" d="M288.9,264.2c27.6,0,50-22.4,50-50s-22.4-50-50-50s-50,22.4-50,50S261.3,264.2,288.9,264.2z
	 M288.9,184.2c16.5,0,30,13.5,30,30s-13.5,30-30,30s-30-13.5-30-30S272.3,184.2,288.9,184.2z"/>
<path id="XMLID_1713_" class="st2" d="M256.1,20c2.6,0,5.2-1.1,7.1-2.9s2.9-4.4,2.9-7.1s-1.1-5.2-2.9-7.1S258.8,0,256.1,0
	c-2.6,0-5.2,1.1-7.1,2.9c-1.9,1.9-2.9,4.4-2.9,7.1s1.1,5.2,2.9,7.1C250.9,18.9,253.5,20,256.1,20z"/>
<path id="XMLID_1_" class="st1" d="M395.6,263.3c0.1-0.3,0.5-3.6,0.5-4.4c0.5-12.6-10.5-24.1-24.1-24.1c-11.5,0-21.4,8.2-23.7,19.4
	c-1.1,5.4,2.5,10.7,7.9,11.7c5.4,1.1,10.7-2.5,11.7-7.9c0.4-1.9,2.1-3.3,4-3.3c2.1,0,3.9,1.6,4.1,3.7l-0.1,0.7
	c-0.4,1.6-1.5,4.3-4.2,8.1c-16.8,24-19.3,27.4-19.4,27.4c-2.3,3-2.7,7.1-1,10.5c1.7,3.4,5.2,5.6,9,5.6h28.1c5.5,0,10-4.5,10-10
	s-4.5-10-10-10h-8.7c2.3-3.3,5.1-7.3,8.5-12.1C392,273.2,394.4,268.1,395.6,263.3L395.6,263.3z"/>
</svg>
