<svg height="512pt" viewBox="0 -51 512.001 512" width="512pt" xmlns="http://www.w3.org/2000/svg"><path d="m434.675781 124.710938c-11.304687 0-22.035156 2.4375-31.710937 6.800781-4.730469 2.132812-10.082032-1.253907-10.082032-6.441407v-22.527343c0-42.703125-34.617187-77.324219-77.324218-77.324219-28.527344 0-53.429688 15.457031-66.828125 38.445312-2.066407 3.542969-6.644531 4.578126-10.074219 2.335938-12.136719-7.929688-26.636719-12.542969-42.214844-12.542969-42.703125 0-77.324218 34.621094-77.324218 77.324219v20.457031c0 5.1875-5.351563 8.574219-10.082032 6.441407-9.675781-4.363282-20.40625-6.800782-31.710937-6.800782-42.707031 0-77.324219 34.621094-77.324219 77.324219v19.015625c0 42.703125 34.617188 77.324219 77.324219 77.324219h357.351562c42.707031 0 77.324219-34.617188 77.324219-77.324219v-45.183594c0-42.703125-34.617188-77.324218-77.324219-77.324218zm0 0" fill="#6bdae8"/><path d="m437.671875 124.789062c8.292969 12.316407 13.136719 27.152344 13.136719 43.117188v45.183594c0 42.707031-34.621094 77.324218-77.328125 77.324218h-357.347657c-1.007812 0-2.003906-.039062-3-.074218 13.886719 20.628906 37.453126 34.203125 64.191407 34.203125h357.351562c42.703125 0 77.324219-34.621094 77.324219-77.324219v-45.183594c0-41.699218-33.011719-75.671875-74.328125-77.246094zm0 0" fill="#00c8de"/><g fill="#006a74"><path d="m196.59375 153.285156c23.289062 0 36.046875 14.617188 36.046875 23.289063 0 5.699219-3.097656 9.164062-9.167969 9.164062-11.769531 0-8.296875-16.101562-26.878906-16.101562-12.757812 0-23.285156 11.023437-23.285156 30.347656 0 16.226563 6.4375 30.347656 24.027344 30.347656 15.980468 0 15.609374-17.09375 25.394531-17.09375 4.953125 0 9.910156 2.847657 9.910156 7.800781 0 12.882813-15.609375 25.640626-35.304687 25.640626-27.867188 0-44.34375-15.976563-44.34375-46.695313 0-25.144531 14.863281-46.699219 43.601562-46.699219zm0 0"/><path d="m286.398438 153.285156c29.230468 0 45.085937 19.449219 45.085937 45.585938 0 25.144531-14.617187 47.8125-45.085937 47.8125-31.957032 0-45.085938-20.808594-45.085938-47.8125 0-26.136719 15.851562-45.585938 45.085938-45.585938zm0 77.046875c18.457031 0 24.773437-14.371093 24.773437-31.464843s-8.175781-29.230469-24.773437-29.230469c-16.597657 0-24.773438 12.136719-24.773438 29.230469s5.699219 31.464843 24.773438 31.464843zm0 0"/><path d="m376.464844 264.019531c4.730468 0 6.703125 2.445313 6.703125 6.621094 0 4.179687-1.972657 6.621094-6.703125 6.621094h-32.164063c-4.175781 0-6.699219-3.152344-6.699219-6.542969 0-4.886719 1.179688-7.410156 15.6875-17.5l7.488282-5.203125c3.863281-2.679687 5.28125-4.886719 5.28125-8.117187 0-3.863282-2.597656-6.386719-6.855469-6.386719-8.988281 0-4.335937 10.957031-13.246094 10.957031-5.675781 0-7.726562-3.152344-7.726562-7.644531 0-7.570313 7.410156-15.609375 21.445312-15.609375 16.792969 0 22.625 9.144531 22.625 17.894531 0 6.621094-3.3125 11.351563-10.328125 15.765625l-14.269531 8.988281v.15625zm0 0"/></g><path d="m446.871094 17.675781c0 9.761719-7.914063 17.675781-17.675782 17.675781-9.761718 0-17.675781-7.914062-17.675781-17.675781s7.914063-17.675781 17.675781-17.675781c9.761719 0 17.675782 7.914062 17.675782 17.675781zm0 0" fill="#6bdae8"/><path d="m111.226562 397.566406c0 6.507813-5.277343 11.78125-11.785156 11.78125-6.507812 0-11.785156-5.273437-11.785156-11.78125 0-6.511718 5.277344-11.785156 11.785156-11.785156 6.507813 0 11.785156 5.273438 11.785156 11.785156zm0 0" fill="#00c8de"/><path d="m192.816406 370.308594c0 12.378906-10.035156 22.410156-22.410156 22.410156-12.378906 0-22.414062-10.03125-22.414062-22.410156s10.035156-22.410156 22.414062-22.410156c12.375 0 22.410156 10.03125 22.410156 22.410156zm0 0" fill="#6bdae8"/><path d="m433.859375.644531c1.125 2.324219 1.773437 4.921875 1.773437 7.675781 0 9.761719-7.914062 17.675782-17.675781 17.675782-1.617187 0-3.175781-.238282-4.664062-.644532 2.859375 5.910157 8.894531 10 15.902343 10 9.761719 0 17.675782-7.914062 17.675782-17.675781 0-8.144531-5.515625-14.984375-13.011719-17.03125zm0 0" fill="#00c8de"/><path d="m178.34375 349.347656c2.054688 3.386719 3.234375 7.359375 3.234375 11.605469 0 12.378906-10.03125 22.410156-22.410156 22.410156-2.796875 0-5.472657-.515625-7.9375-1.449219 3.925781 6.476563 11.046875 10.804688 19.175781 10.804688 12.375 0 22.410156-10.035156 22.410156-22.410156 0-9.582032-6.015625-17.753906-14.472656-20.960938zm0 0" fill="#00c8de"/></svg>