<?xml version="1.0" encoding="utf-8"?>
<!-- Generator: Adobe Illustrator 24.1.1, SVG Export Plug-In . SVG Version: 6.00 Build 0)  -->
<svg version="1.1" id="Camada_1" xmlns="http://www.w3.org/2000/svg" xmlns:xlink="http://www.w3.org/1999/xlink" x="0px" y="0px"
	 viewBox="0 0 512 512" style="enable-background:new 0 0 512 512;" xml:space="preserve">
<style type="text/css">
	.st0{fill:none;}
	.st1{fill:#FFFFFF;}
</style>
<path class="st0" d="M58,402h48v56H58V402z"/>
<path class="st0" d="M154,402h48v56h-48V402z"/>
<path class="st1" d="M130,256c2.6,0,5.2-1.1,7.1-2.9s2.9-4.4,2.9-7.1s-1.1-5.2-2.9-7.1s-4.4-2.9-7.1-2.9s-5.2,1.1-7.1,2.9
	s-2.9,4.4-2.9,7.1s1.1,5.2,2.9,7.1S127.4,256,130,256z"/>
<path class="st1" d="M106,392H58c-5.5,0-10,4.5-10,10v56c0,5.5,4.5,10,10,10h48c5.5,0,10-4.5,10-10v-56C116,396.5,111.5,392,106,392
	z M96,448H68v-36h28V448z"/>
<path class="st1" d="M202,392h-48c-5.5,0-10,4.5-10,10v56c0,5.5,4.5,10,10,10h48c5.5,0,10-4.5,10-10v-56
	C212,396.5,207.5,392,202,392z M192,448h-28v-36h28V448z"/>
<path class="st1" d="M505.8,170.5c-3.7-1.6-8-0.7-10.9,2.2L438,229.6v-49.9c0-4-2.4-7.7-6.2-9.2c-3.7-1.6-8-0.7-10.9,2.2L364,229.6
	v-49.9c0-4-2.4-7.7-6.2-9.2c-3.7-1.6-8-0.7-10.9,2.2l-71.2,71.2h-49.8c-5.5,0-10,4.5-10,10V348h-20V138.5c0-4.2-2.6-7.9-6.5-9.4
	l-56-21c-3.1-1.2-6.5-0.7-9.2,1.1c-2.7,1.9-4.3,4.9-4.3,8.2V201c0,5.5,4.5,10,10,10s10-4.5,10-10v-69.1l36,13.5V348h-36v-57
	c0-5.5-4.5-10-10-10s-10,4.5-10,10v57h-20V138.5c0-4.2-2.6-7.9-6.5-9.4l-56-21c-3.1-1.2-6.5-0.7-9.2,1.1c-2.7,1.9-4.3,4.9-4.3,8.2
	V348H10c-5.5,0-10,4.5-10,10v144c0,5.5,4.5,10,10,10h492c5.5,0,10-4.5,10-10V179.7C512,175.7,509.6,172,505.8,170.5z M44,131.9
	l36,13.5V348H44V131.9z M20,492V368h206c5.5,0,10-4.5,10-10v-94.2h43.9c2.7,0,5.2-1.1,7.1-2.9l57-57v49.9c0,4,2.4,7.7,6.2,9.2
	c3.7,1.5,8,0.7,10.9-2.2l56.9-56.9v49.9c0,4,2.4,7.7,6.2,9.2c3.7,1.5,8,0.7,10.9-2.2l56.9-56.9v95.7H328c-5.5,0-10,4.5-10,10
	s4.5,10,10,10h164v28H328c-5.5,0-10,4.5-10,10s4.5,10,10,10h164v28H328c-5.5,0-10,4.5-10,10s4.5,10,10,10h164v28H328
	c-5.5,0-10,4.5-10,10s4.5,10,10,10h164V492H20z"/>
</svg>
