<?xml version="1.0" encoding="utf-8"?>
<!-- Generator: Adobe Illustrator 24.1.1, SVG Export Plug-In . SVG Version: 6.00 Build 0)  -->
<svg version="1.1" id="Layer_1" xmlns="http://www.w3.org/2000/svg" xmlns:xlink="http://www.w3.org/1999/xlink" x="0px" y="0px"
	 viewBox="0 0 512 512" style="enable-background:new 0 0 512 512;" xml:space="preserve">
<style type="text/css">
	.st0{fill:#FFFFFF;}
	.st1{fill:#F6B303;}
	.st2{fill:#F7C000;}
</style>
<path class="st0" d="M367.2,452.7H76.4c-9.4,0-17.1-7.7-17.1-17.1V25.1C59.3,15.7,67,8,76.4,8h222.3l85.5,85.5v342
	C384.3,445,376.6,452.7,367.2,452.7z"/>
<g>
	<path class="st1" d="M187.6,256v196.7h178.8c9.9,0,17.9-7.9,17.9-17.7V204.7H238.9C210.6,204.7,187.6,227.7,187.6,256z"/>
	<path class="st1" d="M298.8,8v59.9c0,14.2,11.5,25.7,25.7,25.7h59.9L298.8,8z"/>
</g>
<path class="st0" d="M238.9,504H427c14.2,0,25.7-11.5,25.7-25.7V256c0-14.2-11.5-25.7-25.7-25.7H238.9c-14.2,0-25.7,11.5-25.7,25.7
	v222.3C213.2,492.5,224.7,504,238.9,504z"/>
<path class="st2" d="M110.1,126.1c0-4.4-3.6-8-8-8s-8,3.6-8,8c0,12.8,10.8,23.2,25.7,26v1.3c0,4.4,3.6,8,8,8c4.4,0,8-3.6,8-8v-1.3
	c14.9-2.8,25.7-13.2,25.7-26c0-17.9-14.3-25.4-25.7-29.7V68.6c5.9,1.9,9.6,5.8,9.6,9.4c0,4.4,3.6,8,8,8c4.4,0,8-3.6,8-8
	c0-12.8-10.8-23.2-25.7-26v-1.3c0-4.4-3.6-8-8-8s-8,3.6-8,8V52c-14.9,2.8-25.7,13.2-25.7,26c0,17.9,14.3,25.4,25.7,29.7v27.9
	C113.8,133.6,110.1,129.7,110.1,126.1z M145.4,126.1c0,3.6-3.7,7.5-9.6,9.4v-21.6C143.7,117.8,145.4,121.3,145.4,126.1z M110.1,78
	c0-3.6,3.7-7.5,9.6-9.4v21.6C111.7,86.3,110.1,82.9,110.1,78z"/>
<path class="st2" d="M187.6,75.9H256c4.4,0,8-3.6,8-8c0-4.4-3.6-8-8-8h-68.4c-4.4,0-8,3.6-8,8C179.6,72.3,183.2,75.9,187.6,75.9z"/>
<path class="st2" d="M187.6,144.3h8.6c4.4,0,8-3.6,8-8c0-4.4-3.6-8-8-8h-8.6c-4.4,0-8,3.6-8,8C179.6,140.7,183.2,144.3,187.6,144.3z
	"/>
<path class="st2" d="M102.1,194.2h239.4c4.4,0,8-3.6,8-8c0-4.4-3.6-8-8-8H102.1c-4.4,0-8,3.6-8,8C94.1,190.6,97.7,194.2,102.1,194.2
	z"/>
<path class="st2" d="M179,239.4h-25.7c-4.4,0-8,3.6-8,8s3.6,8,8,8H179c4.4,0,8-3.6,8-8S183.5,239.4,179,239.4z"/>
<path class="st2" d="M119.2,239.4h-17.1c-4.4,0-8,3.6-8,8s3.6,8,8,8h17.1c4.4,0,8-3.6,8-8S123.6,239.4,119.2,239.4z"/>
<path class="st2" d="M179,273.6h-25.7c-4.4,0-8,3.6-8,8s3.6,8,8,8H179c4.4,0,8-3.6,8-8S183.5,273.6,179,273.6z"/>
<path class="st2" d="M119.2,273.6h-17.1c-4.4,0-8,3.6-8,8s3.6,8,8,8h17.1c4.4,0,8-3.6,8-8S123.6,273.6,119.2,273.6z"/>
<path class="st2" d="M179,307.8h-25.7c-4.4,0-8,3.6-8,8s3.6,8,8,8H179c4.4,0,8-3.6,8-8S183.5,307.8,179,307.8z"/>
<path class="st2" d="M119.2,307.8h-17.1c-4.4,0-8,3.6-8,8s3.6,8,8,8h17.1c4.4,0,8-3.6,8-8S123.6,307.8,119.2,307.8z"/>
<path class="st2" d="M179,342h-25.7c-4.4,0-8,3.6-8,8c0,4.4,3.6,8,8,8H179c4.4,0,8-3.6,8-8C187.1,345.6,183.5,342,179,342z"/>
<path class="st2" d="M119.2,342h-17.1c-4.4,0-8,3.6-8,8c0,4.4,3.6,8,8,8h17.1c4.4,0,8-3.6,8-8C127.2,345.6,123.6,342,119.2,342z"/>
<path class="st2" d="M179,376.3h-25.7c-4.4,0-8,3.6-8,8c0,4.4,3.6,8,8,8H179c4.4,0,8-3.6,8-8S183.5,376.3,179,376.3z"/>
<path class="st2" d="M119.2,376.3h-17.1c-4.4,0-8,3.6-8,8c0,4.4,3.6,8,8,8h17.1c4.4,0,8-3.6,8-8S123.6,376.3,119.2,376.3z"/>
<path class="st2" d="M265.1,136.3c0,4.4,3.6,8,8,8h8.6c4.4,0,8-3.6,8-8c0-4.4-3.6-8-8-8h-8.6C268.7,128.3,265.1,131.9,265.1,136.3z"
	/>
<path class="st2" d="M315.9,144.3h8.6c4.4,0,8-3.6,8-8c0-4.4-3.6-8-8-8h-8.6c-4.4,0-8,3.6-8,8C307.8,140.7,311.4,144.3,315.9,144.3z
	"/>
<path class="st2" d="M230.3,128.3c-4.4,0-8,3.6-8,8c0,4.4,3.6,8,8,8h8.6c4.4,0,8-3.6,8-8c0-4.4-3.6-8-8-8H230.3z"/>
<path class="st2" d="M187.6,110.1h85.5c4.4,0,8-3.6,8-8s-3.6-8-8-8h-85.5c-4.4,0-8,3.6-8,8S183.2,110.1,187.6,110.1z"/>
<path class="st2" d="M427,222.3h-34.7V93.5c0-2.1-0.8-4.2-2.3-5.7L304.4,2.3c-1.5-1.5-3.5-2.3-5.7-2.3H76.4
	C62.6,0,51.3,11.3,51.3,25.1v410.5c0,13.9,11.3,25.1,25.1,25.1h128.8v17.6c0,18.6,15.1,33.7,33.7,33.7H427
	c18.6,0,33.7-15.1,33.7-33.7V256C460.7,237.4,445.6,222.3,427,222.3z M306.8,27.4l58.1,58.1h-40.5c-9.7,0-17.6-7.9-17.6-17.6V27.4z
	 M76.4,444.7c-5,0-9.1-4.1-9.1-9.1V25.1c0-5,4.1-9.1,9.1-9.1h214.3v51.8c0,18.6,15.1,33.7,33.7,33.7h51.8v120.8H238.9
	c-18.6,0-33.7,15.1-33.7,33.7v188.7H76.4z M444.7,478.3c0,9.7-7.9,17.6-17.6,17.6H238.9c-9.7,0-17.6-7.9-17.6-17.6V256
	c0-9.7,7.9-17.6,17.6-17.6H427c9.7,0,17.6,7.9,17.6,17.6L444.7,478.3L444.7,478.3z"/>
<path class="st2" d="M409.9,256.5H256c-9.1,0-16.6,7.4-16.6,16.6v34.2c0,9.1,7.4,16.6,16.6,16.6h153.9c9.1,0,16.6-7.4,16.6-16.6
	v-34.2C426.5,264,419.1,256.5,409.9,256.5z M410.5,307.3c0,0.3-0.2,0.5-0.5,0.5H256c-0.3,0-0.5-0.2-0.5-0.5v-34.2
	c0-0.3,0.2-0.5,0.5-0.5h153.9c0.3,0,0.5,0.2,0.5,0.5L410.5,307.3L410.5,307.3z"/>
<path class="st2" d="M273.1,350.6H256c-9.1,0-16.6,7.4-16.6,16.6v17.1c0,9.1,7.4,16.6,16.6,16.6h17.1c9.1,0,16.6-7.4,16.6-16.6
	v-17.1C289.7,358,282.2,350.6,273.1,350.6z M273.6,384.3c0,0.3-0.2,0.5-0.5,0.5H256c-0.3,0-0.5-0.2-0.5-0.5v-17.1
	c0-0.3,0.2-0.5,0.5-0.5h17.1c0.3,0,0.5,0.2,0.5,0.5L273.6,384.3L273.6,384.3z"/>
<path class="st2" d="M409.9,350.6h-17.1c-9.1,0-16.6,7.4-16.6,16.6v17.1c0,9.1,7.4,16.6,16.6,16.6h17.1c9.1,0,16.6-7.4,16.6-16.6
	v-17.1C426.5,358,419.1,350.6,409.9,350.6z M410.5,384.3c0,0.3-0.2,0.5-0.5,0.5h-17.1c-0.3,0-0.5-0.2-0.5-0.5v-17.1
	c0-0.3,0.2-0.5,0.5-0.5h17.1c0.3,0,0.5,0.2,0.5,0.5V384.3z"/>
<path class="st2" d="M341.5,350.6h-17.1c-9.1,0-16.6,7.4-16.6,16.6v17.1c0,9.1,7.4,16.6,16.6,16.6h17.1c9.1,0,16.6-7.4,16.6-16.6
	v-17.1C358.1,358,350.6,350.6,341.5,350.6z M342,384.3c0,0.3-0.2,0.5-0.5,0.5h-17.1c-0.3,0-0.5-0.2-0.5-0.5v-17.1
	c0-0.3,0.2-0.5,0.5-0.5h17.1c0.3,0,0.5,0.2,0.5,0.5V384.3z"/>
<path class="st2" d="M273.1,419H256c-9.1,0-16.6,7.4-16.6,16.6v17.1c0,9.1,7.4,16.6,16.6,16.6h17.1c9.1,0,16.6-7.4,16.6-16.6v-17.1
	C289.7,426.4,282.2,419,273.1,419z M273.6,452.7c0,0.3-0.2,0.5-0.5,0.5H256c-0.3,0-0.5-0.2-0.5-0.5v-17.1c0-0.3,0.2-0.5,0.5-0.5
	h17.1c0.3,0,0.5,0.2,0.5,0.5L273.6,452.7L273.6,452.7z"/>
<path class="st2" d="M409.9,419h-17.1c-9.1,0-16.6,7.4-16.6,16.6v17.1c0,9.1,7.4,16.6,16.6,16.6h17.1c9.1,0,16.6-7.4,16.6-16.6
	v-17.1C426.5,426.4,419.1,419,409.9,419z M410.5,452.7c0,0.3-0.2,0.5-0.5,0.5h-17.1c-0.3,0-0.5-0.2-0.5-0.5v-17.1
	c0-0.3,0.2-0.5,0.5-0.5h17.1c0.3,0,0.5,0.2,0.5,0.5V452.7z"/>
<path class="st2" d="M341.5,419h-17.1c-9.1,0-16.6,7.4-16.6,16.6v17.1c0,9.1,7.4,16.6,16.6,16.6h17.1c9.1,0,16.6-7.4,16.6-16.6
	v-17.1C358.1,426.4,350.6,419,341.5,419z M342,452.7c0,0.3-0.2,0.5-0.5,0.5h-17.1c-0.3,0-0.5-0.2-0.5-0.5v-17.1
	c0-0.3,0.2-0.5,0.5-0.5h17.1c0.3,0,0.5,0.2,0.5,0.5V452.7z"/>
</svg>
