<?xml version="1.0" encoding="utf-8"?>
<!-- Generator: Adobe Illustrator 24.1.1, SVG Export Plug-In . SVG Version: 6.00 Build 0)  -->
<svg version="1.1" id="Camada_1" xmlns="http://www.w3.org/2000/svg" xmlns:xlink="http://www.w3.org/1999/xlink" x="0px" y="0px"
	 viewBox="0 0 512 512" style="enable-background:new 0 0 512 512;" xml:space="preserve">
<style type="text/css">
	.st0{fill:#F6B303;}
	.st1{fill:#F7C000;}
</style>
<path class="st0" d="M337.1,233.5h-58.3V119.6L174.8,278.3h58.3v114L337.1,233.5z"/>
<path class="st1" d="M256,511.9c-68.4,0-132.6-26.6-181-75C26.6,388.6,0,324.3,0,256c0-65,24.1-126.3,68-173.8L44.5,58.6
	c-2.9-2.9-3.7-7.2-2.2-10.9c1.5-3.7,5.2-6.2,9.2-6.2h98.7c5.5,0,10,4.5,10,10v98.7c0,4-2.4,7.7-6.2,9.2c-3.7,1.5-8,0.7-10.9-2.2
	l-23.2-23.2c-64.2,71.6-61.9,182,6.9,250.8c34.5,34.5,80.3,53.4,129,53.4c5.5,0,10,4.5,10,10v53.5C266,507.4,261.5,511.9,256,511.9z
	 M75.7,61.6L89.1,75C91,76.8,92,79.4,92,82s-1.1,5.2-2.9,7.1C44.5,133.7,20,192.9,20,256c0,63,24.5,122.3,69.1,166.8
	c42.2,42.2,97.6,66.4,156.9,68.9v-33.5c-50.3-2.4-97.3-23.2-133.2-59.1c-78.9-78.9-78.9-207.4,0-286.3c3.9-3.9,10.2-3.9,14.1,0
	l13.4,13.4V61.6H75.7z"/>
<path class="st1" d="M460.3,470.3h-98.7c-5.5,0-10-4.5-10-10v-98.7c0-4,2.4-7.7,6.2-9.2c3.7-1.5,8-0.7,10.9,2.2l23.2,23.2
	c64.2-71.6,61.9-182-6.9-250.8c-34.5-34.5-80.3-53.4-129-53.4c-5.5,0-10-4.5-10-10V10c0-5.5,4.5-10,10-10C308,0,358,15.5,400.7,44.8
	c4.6,3.1,5.7,9.4,2.6,13.9c-3.1,4.6-9.4,5.7-13.9,2.6C352.8,36.2,310.3,22,266,20.2v33.5c50.3,2.4,97.3,23.2,133.2,59.1
	c78.9,78.9,78.9,207.4,0,286.3c-1.9,1.9-4.4,2.9-7.1,2.9s-5.2-1.1-7.1-2.9l-13.4-13.4v64.6h64.6l-13.4-13.4
	c-1.9-1.9-2.9-4.4-2.9-7.1s1.1-5.2,2.9-7.1c80.5-80.5,92.2-206.9,27.6-300.5c-3.1-4.5-2-10.8,2.6-13.9c4.5-3.1,10.8-2,13.9,2.6
	c68.1,98.8,58,231.3-23,318.8l23.5,23.5c2.9,2.9,3.7,7.2,2.2,10.9C468,467.9,464.4,470.3,460.3,470.3z"/>
<path class="st1" d="M233.2,402.3c-0.9,0-1.9-0.1-2.9-0.4c-4.2-1.3-7.1-5.2-7.1-9.6v-104h-48.3c-3.7,0-7.1-2-8.8-5.2
	c-1.7-3.2-1.6-7.2,0.4-10.2l103.9-158.6c2.4-3.7,7-5.4,11.2-4.1s7.1,5.2,7.1,9.6v103.9h48.3c3.7,0,7,2,8.8,5.2
	c1.8,3.2,1.6,7.2-0.4,10.2L241.5,397.7C239.7,400.6,236.5,402.3,233.2,402.3z M193.3,268.3h39.8c5.5,0,10,4.5,10,10v80.5l75.4-115.2
	h-39.8c-5.5,0-10-4.5-10-10v-80.4L193.3,268.3z"/>
<path class="st1" d="M429.9,92c-2.6,0-5.2-1.1-7.1-2.9s-2.9-4.4-2.9-7.1c0-2.6,1.1-5.2,2.9-7.1c1.9-1.9,4.4-2.9,7.1-2.9
	c2.6,0,5.2,1.1,7.1,2.9c1.9,1.9,2.9,4.4,2.9,7.1s-1.1,5.2-2.9,7.1S432.5,92,429.9,92z"/>
</svg>
