<?xml version="1.0" encoding="utf-8"?>
<!-- Generator: Adobe Illustrator 24.1.1, SVG Export Plug-In . SVG Version: 6.00 Build 0)  -->
<svg version="1.1" id="Capa_1" xmlns="http://www.w3.org/2000/svg" xmlns:xlink="http://www.w3.org/1999/xlink" x="0px" y="0px"
	 viewBox="0 0 512 512" style="enable-background:new 0 0 512 512;" xml:space="preserve">
<style type="text/css">
	.st0{fill:#FFFFFF;}
</style>
<path class="st0" d="M309.1,243c2.6,0,5.1-1,7.1-2.9l0.1-0.1c3.9-3.9,3.9-10.2,0-14.1c-3.9-3.9-10.2-3.9-14.1,0l-0.1,0.1
	c-3.9,3.9-3.9,10.2,0,14.1C304,242,306.5,243,309.1,243z"/>
<path class="st0" d="M210.6,226.5c-3.9-3.9-10.2-3.9-14.1,0c-3.9,3.9-3.9,10.2,0,14.1l0.1,0.1c2,2,4.5,3,7.1,3c2.5,0,5.1-1,7-2.9
	C214.6,236.8,214.6,230.5,210.6,226.5L210.6,226.5z"/>
<path class="st0" d="M256,200c-5.5,0-10,4.5-10,10s4.5,10,10,10l0,0c5.5,0,10-4.5,10-10S261.5,200,256,200z"/>
<path class="st0" d="M512,440.9V112.4c0-2.7-1.1-5.2-2.9-7.1l-49-49c-3.9-3.9-10.2-3.9-14.1,0l-42,42l-41.9-41.9
	c-3.9-3.9-10.2-3.9-14.1,0l-49,49l0,0l-40.1-11.6c-0.9-0.3-1.9-0.4-2.8-0.4s-1.9,0.1-2.8,0.4l-112.8,32.5l-26.6-26.6
	c-3.9-3.9-10.2-3.9-14.1,0s-3.9,10.2,0,14.1l27.7,27.7l-8.2,15.5l-3.7-16.7c-1.2-5.4-6.5-8.8-11.9-7.6s-8.8,6.5-7.6,11.9l7.1,32.2
	L62,201.4l9.9-57c0.9-5.4-2.7-10.6-8.1-11.6c-5.4-0.9-10.6,2.7-11.6,8.1L0.8,437c-0.5,1.2-0.8,2.5-0.8,3.9V502c0,5.5,4.5,10,10,10
	h5.5l0,0l0,0H398h0.1h0.1h98.2c0,0,0,0,0.1,0l0,0h5.5c5.5,0,10-4.5,10-10V440.9L512,440.9z M288.1,406.3c-5.5-0.4-10.3,3.6-10.8,9.1
	s3.6,10.3,9.1,10.8c65.5,5.4,127.4,28,180.6,65.7h-66.7c-45.2-21.9-93.8-33-144.4-33s-99.2,11.1-144.4,33H44.9
	C97,455,157.4,432.5,221.3,426.5c5.5-0.5,9.5-5.4,9-10.9s-5.4-9.5-10.9-9c-73,6.9-141.6,34.1-199.5,78.9V446
	c69.4-48.4,150.9-74,236-74c49.7,0,98.2,8.8,143.8,25.7c0.5,0.2,1,0.4,1.5,0.6c31.9,12,62.3,28,90.7,47.8v39.5
	C432.9,439.8,362.7,412.5,288.1,406.3z M345.5,492h-179c28.8-8.6,58.7-13,89.5-13S316.7,483.4,345.5,492z M55.8,236.9l55,32.2
	l-67.6,40.7L55.8,236.9z M204.2,352l51.9-51.9L308,352H204.2z M371,352h-29V210c0-5.5-4.5-10-10-10h-47.5c-5.5,0-10,4.5-10,10
	s4.5,10,10,10H322v117.9L270.2,286l27.3-27.3c3.9-3.9,3.9-10.2,0-14.1c-3.9-3.9-10.2-3.9-14.1,0L256,271.9l-26.7-26.7
	c-3.9-3.9-10.2-3.9-14.1,0s-3.9,10.2,0,14.1l26.7,26.7L190,338V220h36.3c5.5,0,10-4.5,10-10s-4.5-10-10-10H180c-5.5,0-10,4.5-10,10
	v142h-29V220.8l24.5-50.2l90.5-28.1l90.5,28.1l24.5,50.2V352z M104.5,379.3l-55.6-49.5l72.1-43.4V362c0,4.3,2.7,8,6.5,9.4
	C119.7,373.8,112.1,376.4,104.5,379.3z M36.9,345.9l46.9,41.7c-20.5,8.9-40.5,19.5-59.6,31.7L36.9,345.9z M453,77.6l39,39V422
	c-24.8-16.1-50.9-29.6-78-40.2V193v-76.4L453,77.6z M355,77.6l39,39v42.7l-14.5-27.5c-1.3-2.4-3.5-4.2-6.1-4.9l-52.5-15.2L355,77.6z
	 M148.3,144.9L256,113.8l107.7,31.1l30.2,57.4v172.2c-3.1-1.1-6.3-2.1-9.5-3.1c3.8-1.4,6.5-5.1,6.5-9.4l0.1-143.5c0-1.5-0.3-3-1-4.4
	L362.6,158c-1.2-2.5-3.4-4.3-6-5.2L259,122.5c-1.9-0.6-4.1-0.6-6,0l-97.6,30.3c-2.6,0.8-4.8,2.7-6,5.2l-20.6,42.1l-2.8-12.8
	L148.3,144.9z M119.6,251.2L68.1,221l39.6-23.5L119.6,251.2z"/>
<path class="st0" d="M256.4,405H256c-5.5,0-10,4.5-10,10s4.5,10,10,10h0.4c5.5,0,10-4.5,10-10S261.9,405,256.4,405z"/>
<path class="st0" d="M84.2,61.3c5.5,0,10-4.5,10-10V10c0-5.5-4.5-10-10-10s-10,4.5-10,10v41.3C74.2,56.9,78.7,61.3,84.2,61.3z"/>
<path class="st0" d="M84.2,104.2c-5.5,0-10,4.5-10,10v44.2c0,5.5,4.5,10,10,10s10-4.5,10-10v-44.2C94.2,108.7,89.7,104.2,84.2,104.2
	z"/>
<path class="st0" d="M104.1,84.2c0,5.5,4.5,10,10,10h44.3c5.5,0,10-4.5,10-10s-4.5-10-10-10h-44.3C108.6,74.2,104.1,78.7,104.1,84.2
	z"/>
<path class="st0" d="M10,94.2h44.2c5.5,0,10-4.5,10-10s-4.5-10-10-10H10c-5.5,0-10,4.5-10,10S4.5,94.2,10,94.2z"/>
<path class="st0" d="M105.4,73c2.6,0,5.1-1,7.1-2.9l31.3-31.3c3.9-3.9,3.9-10.2,0-14.1s-10.2-3.9-14.1,0L98.3,55.9
	c-3.9,3.9-3.9,10.2,0,14.1C100.3,72,102.8,73,105.4,73z"/>
<path class="st0" d="M55.9,98.3l-31.3,31.3c-3.9,3.9-3.9,10.2,0,14.1c2,2,4.5,2.9,7.1,2.9s5.1-1,7.1-2.9l31.3-31.3
	c3.9-3.9,3.9-10.2,0-14.1C66.1,94.4,59.8,94.4,55.9,98.3z"/>
<path class="st0" d="M56.9,71.1c2,2,4.5,2.9,7.1,2.9s5.1-1,7.1-2.9c3.9-3.9,3.9-10.2,0-14.1L38.8,24.7c-3.9-3.9-10.2-3.9-14.1,0
	s-3.9,10.2,0,14.1L56.9,71.1z"/>
<path class="st0" d="M84.2,73.2c-6.1,0-11,4.9-11,11s4.9,11,11,11s11-4.9,11-11S90.3,73.2,84.2,73.2z"/>
</svg>
