<svg height="512" viewBox="0 0 512 512" width="512" xmlns="http://www.w3.org/2000/svg"><g id="Flat"><path d="m88 88h224v136h-224z" fill="#cfcfcd"/><path d="m88 88h112v136h-112z" fill="#e0e0de"/><path d="m144 24-56 64h112z" fill="#d75246"/><path d="m144 24 56 64h112l-56-64z" fill="#c24135"/><path d="m240 120h32v32h-32z" fill="#4db7e5"/><path d="m120 120h48v104h-48z" fill="#92563a"/><path d="m120 120h48v16h-48z" fill="#875036"/><path d="m240 120h32v16h-32z" fill="#4aafdb"/><path d="m298.51 184h-2.73a21.486 21.486 0 0 0 -13.757 4.981l-42.023 35.019h-12a20 20 0 0 0 20-20 20 20 0 0 0 -20-20h-60a54.626 54.626 0 0 0 -38.627-16h-.833a54.624 54.624 0 0 0 -30.3 9.175l-10.24 6.825v88h160l63.7-49.547a21.493 21.493 0 0 0 8.3-16.963 21.489 21.489 0 0 0 -21.49-21.49z" fill="#fec9a3"/><path d="m24 184h64v88h-64z" fill="#348fd9" transform="matrix(-1 0 0 -1 112 456)"/><path d="m48 232h16v16h-16z" fill="#2b78b8"/><rect fill="#feb784" height="16" rx="8" width="64" x="176" y="216"/><path d="m48.572 114.971a58.347 58.347 0 0 1 24.254-72l3.058-1.834 8.232 13.718-3.058 1.835a42.415 42.415 0 0 0 -17.63 52.335z" fill="#b7e7eb"/><path d="m360 96h-16c0-25.934-18.345-32.349-18.53-32.41l5.06-15.18c1.203.402 29.47 10.253 29.47 47.59z" fill="#b7e7eb"/><path d="m409.373 440h-162.746a22.628 22.628 0 0 1 -22.627-22.627 22.627 22.627 0 0 1 6.627-16l9.373-9.373v-88a64 64 0 0 1 64-64h48a64 64 0 0 1 64 64v78.627a22.627 22.627 0 0 0 6.627 16l2.746 2.746a22.627 22.627 0 0 1 6.627 16 22.628 22.628 0 0 1 -22.627 22.627z" fill="#ffb531"/><path d="m368 192h-80l16 48h48z" fill="#fcac1f"/><path d="m360 312v-2.053a21.973 21.973 0 0 0 -21.947-21.947h-2.053v-8h-16v8h-2.053a21.948 21.948 0 0 0 -6.94 42.769l28.927 9.642a5.947 5.947 0 0 1 -1.881 11.589h-20.106a5.954 5.954 0 0 1 -5.947-5.947v-2.053h-16v2.053a21.973 21.973 0 0 0 21.947 21.947h2.053v8h16v-8h2.053a21.948 21.948 0 0 0 6.94-42.769l-28.927-9.642a5.947 5.947 0 0 1 1.881-11.589h20.106a5.954 5.954 0 0 1 5.947 5.947v2.053z" fill="#f98500"/><path d="m283.215 295.718-13.841-8.026a40.246 40.246 0 0 1 14.614-14.613l8.024 13.842a24.234 24.234 0 0 0 -8.797 8.797z" fill="#ffc361"/><path d="m264 307.705h16v40h-16z" fill="#ffc361"/><path d="m168 416h-16c0-37.337 28.267-47.188 29.47-47.59l5.06 15.18-2.53-7.59 2.607 7.563c-.76.271-18.607 6.937-18.607 32.437z" fill="#b7e7eb"/><path d="m213.49 400h2.73a21.486 21.486 0 0 1 13.757 4.981l42.023 35.019h12a20 20 0 0 1 -20-20 20 20 0 0 1 20-20h60a54.626 54.626 0 0 1 38.627-16h.833a54.624 54.624 0 0 1 30.3 9.175l10.24 6.825v88h-160l-63.7-49.547a21.493 21.493 0 0 1 -8.3-16.963 21.489 21.489 0 0 1 21.49-21.49z" fill="#fec9a3"/><path d="m424 400h64v88h-64z" fill="#348fd9"/><path d="m448 448h16v16h-16z" fill="#2b78b8"/><rect fill="#feb784" height="16" rx="8" width="64" x="272" y="432"/><path d="m432.578 266.984c-7.628-18.969-20.524-34-36.312-42.339l7.468-14.151c19.134 10.1 34.649 28.042 43.688 50.522z" fill="#b7e7eb"/></g></svg>