<?xml version="1.0" encoding="utf-8"?>
<!-- Generator: Adobe Illustrator 24.1.1, SVG Export Plug-In . SVG Version: 6.00 Build 0)  -->
<svg version="1.1" id="Capa_1" xmlns="http://www.w3.org/2000/svg" xmlns:xlink="http://www.w3.org/1999/xlink" x="0px" y="0px"
	 viewBox="0 0 512 512" style="enable-background:new 0 0 512 512;" xml:space="preserve">
<style type="text/css">
	.st0{fill-rule:evenodd;clip-rule:evenodd;fill:#F6B303;}
	.st1{fill:#F7C000;}
</style>
<g>
	<path class="st0" d="M203.2,193.9H256h52.8c10.2-12,16.4-27.6,16.4-44.6c0-38.2-31-69.1-69.2-69.1c-38.2,0-69.1,30.9-69.1,69.1
		C186.9,166.3,193,181.9,203.2,193.9L203.2,193.9z"/>
</g>
<g>
	<path class="st1" d="M256,43.9c-5.5,0-10-4.5-10-10V10c0-5.5,4.5-10,10-10c5.5,0,10,4.5,10,10v23.9C266,39.4,261.5,43.9,256,43.9z"
		/>
</g>
<g>
	<path class="st1" d="M395.3,159.3h-24c-5.5,0-10-4.5-10-10s4.5-10,10-10h24c5.5,0,10,4.5,10,10S400.9,159.3,395.3,159.3z"/>
</g>
<g>
	<path class="st1" d="M140.6,159.3h-23.9c-5.5,0-10-4.5-10-10s4.5-10,10-10h23.9c5.5,0,10,4.5,10,10S146.1,159.3,140.6,159.3z"/>
</g>
<g>
	<path class="st1" d="M337.6,77.7c-2.6,0-5.1-1-7.1-2.9c-3.9-3.9-3.9-10.2,0-14.1l16.9-16.9c3.9-3.9,10.2-3.9,14.1,0
		c3.9,3.9,3.9,10.2,0,14.1l-16.9,16.9C342.7,76.7,340.1,77.7,337.6,77.7z"/>
</g>
<g>
	<path class="st1" d="M174.4,77.7c-2.6,0-5.1-1-7.1-2.9l-16.9-16.9c-3.9-3.9-3.9-10.2,0-14.1c3.9-3.9,10.2-3.9,14.1,0l16.9,16.9
		c3.9,3.9,3.9,10.2,0,14.1C179.5,76.7,177,77.7,174.4,77.7L174.4,77.7z"/>
</g>
<g>
	<path class="st1" d="M485.3,353.3L466,245.9c0-0.1,0-0.3-0.1-0.4l-9.6-53.4c-0.9-4.8-5-8.2-9.8-8.2H327.1c5.2-10.7,8-22.5,8-34.6
		c0-43.6-35.5-79.1-79.2-79.1c-43.6,0-79.1,35.5-79.1,79.1c0,12.1,2.8,23.9,8,34.6H65.5c-4.8,0-9,3.5-9.8,8.2L36.4,299.2
		c0,0.1,0,0.3-0.1,0.4l-9.6,53.7c-0.5,2.9,0.3,5.9,2.2,8.2s4.7,3.6,7.7,3.6h16v11.3c0,17.3,14,31.3,31.3,31.3h29.3
		c5.5,0,10-4.5,10-10s-4.5-10-10-10H83.8c-6.2,0-11.3-5.1-11.3-11.3V365h367v11.3c0,6.2-5.1,11.3-11.3,11.3H203c-5.5,0-10,4.5-10,10
		s4.5,10,10,10h19.4v40.9h-21.7c-17.5,0-31.8,14.2-31.8,31.7V492h-43.4c-5.5,0-10,4.5-10,10s4.5,10,10,10h260.9c5.5,0,10-4.5,10-10
		s-4.5-10-10-10h-43.4v-11.8c0-17.5-14.2-31.7-31.8-31.7h-21.7v-40.9h138.6c17.3,0,31.3-14,31.3-31.3V365h16c3,0,5.8-1.3,7.7-3.6
		S485.9,356.2,485.3,353.3L485.3,353.3z M323.1,480.2V492H188.9v-11.8c0-6.5,5.3-11.7,11.8-11.7h110.6
		C317.8,468.5,323.1,473.8,323.1,480.2z M269.6,448.5h-27.3v-40.9h27.3V448.5z M64.2,257.6h85l-4.7,33.7H58.1L64.2,257.6z
		 M169.4,257.6H246v33.7h-81.3L169.4,257.6z M246,203.9v33.7h-73.8l4.7-33.7H246z M335.2,203.9l4.7,33.7H266v-33.7H335.2z
		 M246,311.3V345h-88.7l4.7-33.7H246z M266,311.3h84l4.7,33.7H266V311.3z M266,291.3v-33.7h76.6l4.7,33.7H266z M362.8,257.6h85
		l6.1,33.7h-86.4L362.8,257.6z M444.2,237.6H360l-4.7-33.7h82.8L444.2,237.6z M196.9,149.3c0-32.6,26.5-59.1,59.1-59.1
		c32.6,0,59.2,26.5,59.2,59.1c0,12.5-4,24.6-11.2,34.6h-95.9C200.8,173.9,196.9,161.7,196.9,149.3L196.9,149.3z M156.6,203.9
		l-4.7,33.7H67.8l6.1-33.7H156.6z M54.5,311.3h87.3l-4.7,33.7H48.5L54.5,311.3z M374.9,345l-4.7-33.7h87.3l6.1,33.7H374.9z"/>
	<path class="st1" d="M158.1,407.6c5.5,0,10-4.5,10-10s-4.5-10-10-10s-10,4.5-10,10S152.5,407.6,158.1,407.6L158.1,407.6z"/>
</g>
</svg>
