<?xml version="1.0"?>
<svg xmlns="http://www.w3.org/2000/svg" id="Capa_1" enable-background="new 0 0 512 512" height="512px" viewBox="0 0 512 512" width="512px"><g><g><path d="m498.846 435.183-64.997-64.997c-3.906-3.904-10.236-3.904-14.143 0l-2.68 2.68-32.884-32.884 4.381-4.381c12.174-12.175 12.174-31.984 0-44.16l-18.274-18.273c31.978-71.257 18.774-158.02-39.637-216.431-36.587-36.588-85.223-56.737-136.948-56.737-51.727 0-100.355 20.15-136.929 56.738l.002-.003c-36.587 36.574-56.737 85.203-56.737 136.929s20.149 100.361 56.736 136.948c37.747 37.747 87.334 56.62 136.927 56.62 27.149 0 54.295-5.67 79.504-16.983l18.274 18.274c6.087 6.087 14.083 9.13 22.079 9.13 7.997 0 15.993-3.043 22.081-9.13l4.38-4.38 32.883 32.883-2.68 2.68c-3.905 3.905-3.905 10.237 0 14.143l64.997 64.997c8.483 8.482 19.792 13.154 31.842 13.154 12.055 0 23.358-4.675 31.813-13.147 8.487-8.47 13.162-19.773 13.162-31.828.002-12.05-4.67-23.359-13.152-31.842zm-305.182-67.941c-44.465-.004-88.941-16.928-122.785-50.772-32.81-32.81-50.879-76.423-50.879-122.806s18.068-89.988 50.877-122.784c.001-.001.002-.002.002-.003 32.797-32.809 76.402-50.877 122.785-50.877s89.996 18.069 122.806 50.879c67.697 67.696 67.697 177.868.002 245.59-33.867 33.852-78.332 50.777-122.808 50.773zm111.919 7.139-13.753-13.753c13.853-8.139 26.904-18.143 38.783-30.017 11.874-11.878 21.876-24.928 30.015-38.78l13.753 13.752c4.377 4.378 4.377 11.5 0 15.877l-52.921 52.922c-4.377 4.375-11.498 4.378-15.877-.001zm48.541-4.381 15.876-15.876 32.884 32.884-15.876 15.876zm130.572 114.71c-4.691 4.701-10.967 7.29-17.672 7.29-6.708 0-12.994-2.592-17.699-7.297l-57.926-57.926 35.378-35.378 57.926 57.926c4.705 4.705 7.297 10.991 7.297 17.699 0 6.705-2.589 12.981-7.304 17.686z" data-original="#000000" class="active-path" data-old_color="#000000" fill="#FFCE00"/><path d="m315.298 103.768c-18.984-25.644-44.989-44.341-75.204-54.07-5.255-1.69-10.89 1.196-12.583 6.453s1.196 10.892 6.454 12.584c54.396 17.517 90.944 67.721 90.944 124.926 0 72.37-58.878 131.248-131.248 131.248s-131.248-58.879-131.248-131.249c0-56.495 35.966-106.509 89.498-124.453 5.236-1.755 8.059-7.423 6.303-12.659s-7.423-8.06-12.66-6.304c-61.692 20.68-103.141 78.314-103.141 143.416 0 83.398 67.85 151.248 151.248 151.248s151.248-67.85 151.248-151.248c-.001-32.641-10.24-63.725-29.611-89.892z" data-original="#000000" class="active-path" data-old_color="#000000" fill="#FFCE00"/><path d="m121.46 216.495c1.676 3.438 5.165 5.618 8.989 5.618h39.092l-10.022 63.443c-.711 4.502 1.711 8.915 5.891 10.731 1.289.561 2.643.83 3.983.83 3.007-.001 5.941-1.359 7.882-3.843l87.476-111.91c2.355-3.013 2.786-7.104 1.11-10.541s-5.165-5.617-8.989-5.617h-39.092l10.021-63.414c.711-4.501-1.71-8.914-5.89-10.731-4.181-1.814-9.059-.579-11.866 3.012l-87.476 111.881c-2.354 3.012-2.785 7.105-1.109 10.541zm80.56-79.685-5.821 36.837c-.457 2.889.375 5.833 2.274 8.057s4.678 3.504 7.603 3.504h30.287l-51.063 65.327 5.823-36.86c.457-2.889-.375-5.833-2.275-8.057s-4.678-3.504-7.603-3.504h-30.284z" data-original="#000000" class="active-path" data-old_color="#000000" fill="#FFCE00"/><path d="m193.717 62.412c5.523 0 10-4.478 10-10s-4.477-10-10-10h-.057c-5.523 0-9.972 4.478-9.972 10s4.506 10 10.029 10z" data-original="#000000" class="active-path" data-old_color="#000000" fill="#FFCE00"/></g></g> </svg>
