<?xml version="1.0" encoding="utf-8"?>
<!-- Generator: Adobe Illustrator 24.1.1, SVG Export Plug-In . SVG Version: 6.00 Build 0)  -->
<svg version="1.1" id="Camada_1" xmlns="http://www.w3.org/2000/svg" xmlns:xlink="http://www.w3.org/1999/xlink" x="0px" y="0px"
	 viewBox="0 0 512 512" style="enable-background:new 0 0 512 512;" xml:space="preserve">
<style type="text/css">
	.st0{fill:none;}
	.st1{fill:#FFFFFF;}
</style>
<path class="st0" d="M188,286h136v165H188V286z"/>
<path class="st0" d="M384,286h64v96.3h-64V286z"/>
<path class="st0" d="M128,382.3H64V286h64V382.3z"/>
<path class="st1" d="M502,442V222c3.6,0,6.9-1.9,8.7-5c1.8-3.1,1.8-6.9,0-10l-54-94c-1.8-3.1-5.1-5-8.7-5H326.1L263,44.9
	c-3.9-3.9-10.2-3.9-14.1,0l-63,63.1H156V70c10-0.3,18-8.4,18-18.5v-23c0-10.2-8.3-18.5-18.5-18.5h-83C62.3,10,54,18.3,54,28.5v23
	c0,10,8,18.2,18,18.5v38h-8c-3.6,0-6.9,1.9-8.7,5l-54,94c-1.8,3.1-1.8,6.9,0,10s5.1,5,8.7,5v220c-5.5,0-10,4.5-10,10v40
	c0,5.5,4.5,10,10,10h492c5.5,0,10-4.5,10-10v-40C512,446.5,507.5,442,502,442z M118,372.3H74V296h44V372.3z M314,296v145h-48V296
	H314z M394,296h44v76.3h-44V296z M246,441h-48V296h48V441z M394,392.3h54c5.5,0,10-4.5,10-10V286c0-5.5-4.5-10-10-10h-54v-54h88v220
	h-88V392.3z M442.2,128l42.5,74h-64.6l-74-74H442.2z M256,66.1L391.9,202h-90.7c-5.5,0-10,4.5-10,10s4.5,10,10,10H374v219h-40V286
	c0-5.5-4.5-10-10-10H188c-5.5,0-10,4.5-10,10v155h-40V222h73.1c5.5,0,10-4.5,10-10s-4.5-10-10-10h-91L256,66.1z M74,30h80v20H74V30z
	 M92,70h44v38H92V70z M69.8,128h96.1l-74,74H27.3L69.8,128z M30,222h66l0,0h22v54H64c-5.5,0-10,4.5-10,10v96.3c0,5.5,4.5,10,10,10
	h54V442H30V222z M492,482H20v-20h472V482z"/>
<path class="st1" d="M256.1,222c2.6,0,5.2-1.1,7.1-2.9s2.9-4.4,2.9-7.1s-1.1-5.2-2.9-7.1s-4.4-2.9-7.1-2.9c-2.6,0-5.2,1.1-7.1,2.9
	c-1.9,1.9-2.9,4.4-2.9,7.1s1.1,5.2,2.9,7.1C250.9,220.9,253.5,222,256.1,222z"/>
</svg>
