<?xml version="1.0" encoding="utf-8"?>
<!-- Generator: Adobe Illustrator 24.1.1, SVG Export Plug-In . SVG Version: 6.00 Build 0)  -->
<svg version="1.1" id="Camada_1" xmlns="http://www.w3.org/2000/svg" xmlns:xlink="http://www.w3.org/1999/xlink" x="0px" y="0px"
	 viewBox="0 0 512 512" style="enable-background:new 0 0 512 512;" xml:space="preserve">
<style type="text/css">
	.st0{fill:#FFFFFF;}
</style>
<path class="st0" d="M262.2,502c-4.5-5.4-7.2-12.3-7.2-19.8c0-17.1,13.8-30.9,30.9-30.9c0.6,0,1.2,0,1.8,0.1
	c6.9-15.8,22.7-26.8,41-26.8c19.8,0,36.6,12.9,42.5,30.7c4.5-2.5,9.6-3.9,15.1-3.9c17.1,0,30.9,13.8,30.9,30.9
	c0,7.6-2.7,14.5-7.2,19.8H262.2V502z"/>
<path class="st0" d="M420.2,389.1c50.6,0,91.8-41.2,91.8-91.8c0-34.2-19.4-65.6-49.2-81.3c5.5-11.9,8.3-25,8.3-38.2
	c0-50.6-41.2-91.8-91.8-91.8c-22.2,0-43,7.8-59.4,21.7V59.8c4.6-0.9,8-5,8-9.8V10c0-5.5-4.5-10-10-10H10C4.5,0,0,4.5,0,10v40
	c0,4.8,3.4,8.9,8,9.8V502c0,5.5,4.5,10,10,10h392c3,0,5.8-1.3,7.7-3.6c6.2-7.3,9.5-16.7,9.5-26.3c0-21.5-16.7-39.2-37.8-40.8v-57.7
	C399.2,387.2,409.7,389.1,420.2,389.1z M379.4,106c39.6,0,71.8,32.2,71.8,71.8c0,13.4-3.7,26.4-10.7,37.7c-1.6,2.5-1.9,5.7-1,8.5
	c1,2.8,3.1,5.1,6,6.1c27.9,10.4,46.6,37.5,46.6,67.2c0,39.6-32.2,71.8-71.8,71.8c-10.7,0-21.3-2.4-30.9-7v-33.9l45.4-45.4
	c3.9-3.9,3.9-10.2,0-14.1s-10.2-3.9-14.1,0L389.4,300v-24l0,0v-71.7c0-5.5-4.5-10-10-10s-10,4.5-10,10v47.5l-8.3-8.3
	c-3.9-3.9-10.2-3.9-14.1,0s-3.9,10.2,0,14.1l22.4,22.4v44l0,0v38.1c-9.6,4.6-20.2,7-30.9,7c-6.3,0-12.5-0.8-18.5-2.4V137.4
	C333.4,117.7,355.4,106,379.4,106z M369.4,432.6c-10.2-11.3-24.8-18.1-40.6-18.1c-2.9,0-5.9,0.2-8.7,0.7v-28
	c6,1.2,12.2,1.9,18.5,1.9c10.6,0,21-1.8,30.9-5.3L369.4,432.6L369.4,432.6z M28,60h90.7c5.5,0,10-4.5,10-10s-4.5-10-10-10H20V20h288
	v20h-99.3c-5.5,0-10,4.5-10,10s4.5,10,10,10H300v362.6c-7.5,4.6-13.9,11.1-18.5,18.8c-0.5,0.1-1,0.1-1.5,0.2V392c0-5.5-4.5-10-10-10
	h-44c-5.5,0-10,4.5-10,10v56c0,5.5,4.5,10,10,10h26.9c-5,6.8-7.9,15.1-7.9,24.2c0,3.3,0.4,6.6,1.2,9.8H28V60z M260,438h-24v-36h24
	V438z M407.2,482.2c0,3.4-0.9,6.8-2.5,9.8H267.4c-1.6-3-2.5-6.4-2.5-9.8c0-11.5,9.4-20.9,20.9-20.9c0.4,0,0.8,0,1.2,0
	c4.2,0.2,8.1-2.1,9.7-6c5.5-12.6,18-20.8,31.8-20.8c15,0,28.3,9.6,33,23.8c0.9,2.8,3.1,5.1,5.9,6.2s5.9,0.9,8.5-0.6
	c3.1-1.7,6.6-2.7,10.2-2.7C397.8,461.3,407.2,470.6,407.2,482.2z"/>
<path class="st0" d="M102,382H58c-5.5,0-10,4.5-10,10v56c0,5.5,4.5,10,10,10h44c5.5,0,10-4.5,10-10v-56C112,386.5,107.5,382,102,382
	z M92,438H68v-36h24V438z"/>
<path class="st0" d="M186,382h-44c-5.5,0-10,4.5-10,10v56c0,5.5,4.5,10,10,10h44c5.5,0,10-4.5,10-10v-56
	C196,386.5,191.5,382,186,382z M176,438h-24v-36h24V438z"/>
<path class="st0" d="M102,286H58c-5.5,0-10,4.5-10,10v56c0,5.5,4.5,10,10,10h44c5.5,0,10-4.5,10-10v-56C112,290.5,107.5,286,102,286
	z M92,342H68v-36h24V342z"/>
<path class="st0" d="M186,286h-44c-5.5,0-10,4.5-10,10v56c0,5.5,4.5,10,10,10h44c5.5,0,10-4.5,10-10v-56
	C196,290.5,191.5,286,186,286z M176,342h-24v-36h24V342z"/>
<path class="st0" d="M226,362h44c5.5,0,10-4.5,10-10v-56c0-5.5-4.5-10-10-10h-44c-5.5,0-10,4.5-10,10v56
	C216,357.5,220.5,362,226,362z M236,306h24v36h-24V306z"/>
<path class="st0" d="M102,190H58c-5.5,0-10,4.5-10,10v56c0,5.5,4.5,10,10,10h44c5.5,0,10-4.5,10-10v-56C112,194.5,107.5,190,102,190
	z M92,246H68v-36h24V246z"/>
<path class="st0" d="M186,190h-44c-5.5,0-10,4.5-10,10v56c0,5.5,4.5,10,10,10h44c5.5,0,10-4.5,10-10v-56
	C196,194.5,191.5,190,186,190z M176,246h-24v-36h24V246z"/>
<path class="st0" d="M226,266h44c5.5,0,10-4.5,10-10v-56c0-5.5-4.5-10-10-10h-44c-5.5,0-10,4.5-10,10v56
	C216,261.5,220.5,266,226,266z M236,210h24v36h-24V210z"/>
<path class="st0" d="M102,94H58c-5.5,0-10,4.5-10,10v56c0,5.5,4.5,10,10,10h44c5.5,0,10-4.5,10-10v-56C112,98.5,107.5,94,102,94z
	 M92,150H68v-36h24V150z"/>
<path class="st0" d="M186,94h-44c-5.5,0-10,4.5-10,10v56c0,5.5,4.5,10,10,10h44c5.5,0,10-4.5,10-10v-56C196,98.5,191.5,94,186,94z
	 M176,150h-24v-36h24V150z"/>
<path class="st0" d="M226,170h44c5.5,0,10-4.5,10-10v-56c0-5.5-4.5-10-10-10h-44c-5.5,0-10,4.5-10,10v56
	C216,165.5,220.5,170,226,170z M236,114h24v36h-24V114z"/>
<path class="st0" d="M163.7,60c2.6,0,5.2-1.1,7.1-2.9s2.9-4.4,2.9-7.1s-1.1-5.2-2.9-7.1c-1.9-1.9-4.4-2.9-7.1-2.9
	c-2.6,0-5.2,1.1-7.1,2.9c-1.9,1.9-2.9,4.4-2.9,7.1s1.1,5.2,2.9,7.1C158.5,58.9,161,60,163.7,60z"/>
</svg>
